#!OML:ASF I:\Actors\actors\Patient Classification 2\Patient 1\Session 1\actor1.ASF
:FULLY-SPECIFIED
:DEGREES
551
root -0.248205 18.6928 4.28143 21.669 10.2862 -1.96892
lowerback 31.2179 1.38341 -1.4435
upperback 5.5327 1.25525 -0.603889
thorax -10.8978 0.629022 -0.349625
lowerneck -1.75727 -1.20558 -4.23019
upperneck -2.68398 -1.45288 6.18097
head -0.458514 -0.716965 2.68959
rclavicle -2.10712e-014 6.75868e-015
rhumerus 7.72262 17.2184 -64.8654
rradius 146.944
rwrist -19.9621
rhand 9.73597 -54.6372
rfingers 7.12502
rthumb 34.8759 -81.2222
lclavicle -2.10712e-014 6.75868e-015
lhumerus 6.88376 -31.4944 60.2936
lradius 142.643
lwrist 13.7693
lhand -11.0965 -29.076
lfingers 7.12502
lthumb 14.9276 0.36609
rfemur -25.2493 -5.0997 15.6248
rtibia 13.4737
rfoot -19.6619 -14.3583
rtoes -12.5509
lfemur -42.3227 -4.20355 -11.0895
ltibia 33.2834
lfoot -13.8274 6.43557
ltoes -55.4983
552
root -0.24756 18.696 4.28789 21.7211 10.2067 -1.93896
lowerback 31.1607 1.40369 -1.47684
upperback 5.53273 1.26955 -0.615819
thorax -10.8702 0.636368 -0.348385
lowerneck -1.7789 -1.02529 -4.0515
upperneck -2.74477 -1.21535 5.84904
head -0.490032 -0.597984 2.54645
rclavicle -3.83654e-014 1.76918e-014
rhumerus 7.38692 17.6728 -64.8792
rradius 147.133
rwrist -20.2913
rhand 9.07222 -54.8502
rfingers 7.12502
rthumb 34.2458 -81.5791
lclavicle -3.83654e-014 1.76918e-014
lhumerus 7.12974 -30.9528 60.3607
lradius 142.747
lwrist 13.8843
lhand -11.4358 -29.1656
lfingers 7.12502
lthumb 14.6007 0.300501
rfemur -25.2515 -5.06769 15.582
rtibia 13.3949
rfoot -19.6037 -14.3439
rtoes -12.4153
lfemur -42.3059 -4.14912 -11.1409
ltibia 33.2334
lfoot -13.8229 6.43475
ltoes -55.3787
553
root -0.247455 18.6988 4.29436 21.7442 10.1148 -1.8437
lowerback 31.1429 1.41911 -1.56989
upperback 5.55463 1.25638 -0.644284
thorax -10.837 0.633024 -0.321115
lowerneck -1.70923 -0.807402 -3.74682
upperneck -2.92329 -0.931127 5.33336
head -0.576122 -0.457711 2.32142
rclavicle -9.34288e-015 -1.63003e-014
rhumerus 7.05161 17.9459 -65.0479
rradius 147.299
rwrist -20.7772
rhand 10.1206 -54.9953
rfingers 7.12502
rthumb 35.2408 -81.4948
lclavicle -9.34288e-015 -1.63003e-014
lhumerus 7.3567 -30.4459 60.3487
lradius 142.763
lwrist 13.893
lhand -11.4675 -29.3174
lfingers 7.12502
lthumb 14.5701 0.150905
rfemur -25.2073 -5.02964 15.4539
rtibia 13.3155
rfoot -19.5754 -14.3299
rtoes -12.2823
lfemur -42.2464 -4.11225 -11.2751
ltibia 33.1871
lfoot -13.8163 6.44199
ltoes -55.3575
554
root -0.246809 18.7011 4.30068 21.7431 10.0122 -1.83319
lowerback 31.174 1.43269 -1.60052
upperback 5.54847 1.26175 -0.649242
thorax -10.86 0.636188 -0.311845
lowerneck -1.61911 -0.584328 -3.49977
upperneck -3.04808 -0.641286 4.88885
head -0.645826 -0.313997 2.13165
rclavicle -1.78906e-015 1.49089e-014
rhumerus 6.74328 17.8458 -65.2872
rradius 147.369
rwrist -21.0405
rhand 13.3511 -54.73
rfingers 7.12502
rthumb 38.2974 -80.4477
lclavicle -1.78906e-015 1.49089e-014
lhumerus 7.41228 -30.1729 60.2886
lradius 142.765
lwrist 13.9017
lhand -11.379 -29.1662
lfingers 7.12502
lthumb 14.6554 0.295851
rfemur -25.1747 -4.97796 15.4185
rtibia 13.2635
rfoot -19.5219 -14.2954
rtoes -12.3181
lfemur -42.1754 -4.06169 -11.311
ltibia 33.1515
lfoot -13.8313 6.46697
ltoes -55.3696
555
root -0.244767 18.7027 4.30658 21.7855 9.91719 -1.8779
lowerback 31.1528 1.42969 -1.58122
upperback 5.51994 1.26465 -0.639623
thorax -10.8826 0.636759 -0.313166
lowerneck -1.64771 -0.435976 -3.56098
upperneck -3.00775 -0.443917 4.7958
head -0.637194 -0.213206 2.11201
rclavicle -1.19271e-015 -2.46493e-014
rhumerus 6.55729 17.5414 -65.5342
rradius 147.405
rwrist -21.0147
rhand 17.8359 -53.838
rfingers 7.12502
rthumb 42.514 -78.2534
lclavicle -1.19271e-015 -2.46493e-014
lhumerus 7.24837 -30.2125 60.2029
lradius 142.737
lwrist 13.8871
lhand -11.3145 -28.8365
lfingers 7.12502
lthumb 14.7175 0.621037
rfemur -25.2152 -4.90338 15.4398
rtibia 13.2296
rfoot -19.4734 -14.3103
rtoes -12.4642
lfemur -42.1794 -3.99123 -11.2845
ltibia 33.1377
lfoot -13.8217 6.53597
ltoes -55.3497
556
root -0.242342 18.7023 4.30962 21.8364 9.92201 -1.88803
lowerback 31.1152 1.38032 -1.52674
upperback 5.50918 1.22134 -0.632263
thorax -10.8755 0.615366 -0.318774
lowerneck -1.70276 -0.43336 -3.68184
upperneck -2.97914 -0.438577 4.79654
head -0.619033 -0.208514 2.13377
rclavicle -7.95139e-016 -1.88845e-014
rhumerus 6.58785 17.1365 -65.7301
rradius 147.401
rwrist -20.8754
rhand 22.2081 -52.582
rfingers 7.12502
rthumb 46.5863 -75.4283
lclavicle -7.95139e-016 -1.88845e-014
lhumerus 7.00836 -30.5171 60.0566
lradius 142.592
lwrist 13.8206
lhand -11.148 -28.6832
lfingers 7.12502
lthumb 14.8779 0.762591
rfemur -25.2423 -4.82067 15.4126
rtibia 13.1822
rfoot -19.4979 -14.4208
rtoes -12.5213
lfemur -42.2434 -4.04795 -11.2567
ltibia 33.1438
lfoot -13.82 6.68107
ltoes -55.4858
557
root -0.242122 18.703 4.31494 21.8313 9.86238 -1.97595
lowerback 31.0539 1.38925 -1.47969
upperback 5.52361 1.24963 -0.624012
thorax -10.8281 0.626556 -0.346156
lowerneck -1.72444 -0.58539 -3.67927
upperneck -2.96638 -0.643199 4.77193
head -0.602058 -0.310868 2.12473
rclavicle -4.17448e-015 -1.74931e-014
rhumerus 6.80605 16.6564 -65.8389
rradius 147.279
rwrist -20.5831
rhand 20.8582 -51.7206
rfingers 7.12502
rthumb 45.3337 -75.0875
lclavicle -4.17448e-015 -1.74931e-014
lhumerus 6.77722 -31.0092 59.9144
lradius 142.411
lwrist 13.7211
lhand -10.9706 -28.6476
lfingers 7.12502
lthumb 15.0488 0.785456
rfemur -25.2285 -4.6747 15.472
rtibia 13.1558
rfoot -19.5191 -14.4456
rtoes -12.3862
lfemur -42.2262 -3.86972 -11.2253
ltibia 33.1572
lfoot -13.8477 6.63948
ltoes -55.6442
558
root -0.240256 18.7048 4.31928 21.8194 9.86096 -1.99216
lowerback 31.0233 1.38478 -1.4195
upperback 5.5272 1.26257 -0.633072
thorax -10.8076 0.630245 -0.395759
lowerneck -1.79318 -0.821698 -3.79624
upperneck -2.80243 -0.957732 5.01586
head -0.523485 -0.467468 2.22415
rclavicle 1.61016e-014 -2.0276e-014
rhumerus 7.10472 16.2754 -65.8352
rradius 147.066
rwrist -20.2143
rhand 18.7297 -52.1261
rfingers 7.12502
rthumb 43.3499 -76.2472
lclavicle 1.61016e-014 -2.0276e-014
lhumerus 6.57398 -31.5314 59.9151
lradius 142.309
lwrist 13.5656
lhand -10.7638 -28.7954
lfingers 7.12502
lthumb 15.248 0.622575
rfemur -25.2111 -4.63159 15.4702
rtibia 13.18
rfoot -19.574 -14.3996
rtoes -11.9442
lfemur -42.1951 -3.7931 -11.2517
ltibia 33.1638
lfoot -13.8552 6.54985
ltoes -55.6491
559
root -0.23896 18.7066 4.3219 21.8282 9.91204 -1.96704
lowerback 31.002 1.36703 -1.34933
upperback 5.50708 1.26118 -0.646072
thorax -10.8188 0.627141 -0.450686
lowerneck -1.82675 -1.04482 -3.99246
upperneck -2.58367 -1.2541 5.42847
head -0.431811 -0.61485 2.39387
rclavicle -3.99557e-014 -1.53064e-014
rhumerus 7.32428 16.1696 -65.7412
rradius 146.869
rwrist -19.8778
rhand 16.0246 -53.1345
rfingers 7.12502
rthumb 40.8152 -78.1094
lclavicle -3.99557e-014 -1.53064e-014
lhumerus 6.49019 -31.8745 60.0206
lradius 142.274
lwrist 13.4498
lhand -10.5954 -29.0425
lfingers 7.12502
lthumb 15.4103 0.363093
rfemur -25.2096 -4.66559 15.4528
rtibia 13.1995
rfoot -19.5911 -14.3932
rtoes -11.4893
lfemur -42.1943 -3.76488 -11.3052
ltibia 33.155
lfoot -13.8012 6.42118
ltoes -55.5274
560
root -0.238457 18.7076 4.32418 21.872 9.98188 -1.9227
lowerback 30.9217 1.33461 -1.27477
upperback 5.4864 1.24351 -0.662801
thorax -10.8014 0.616552 -0.504879
lowerneck -1.698 -1.22043 -4.00346
upperneck -2.57542 -1.49023 5.66096
head -0.437655 -0.735931 2.47306
rclavicle 3.24019e-014 -8.34896e-015
rhumerus 7.40054 16.4467 -65.5805
rradius 146.802
rwrist -19.679
rhand 13.0339 -53.7197
rfingers 7.12502
rthumb 37.9979 -79.5195
lclavicle 3.24019e-014 -8.34896e-015
lhumerus 6.51513 -31.9033 60.1553
lradius 142.319
lwrist 13.4365
lhand -10.6837 -29.1912
lfingers 7.12502
lthumb 15.3251 0.220897
rfemur -25.2275 -4.67591 15.4177
rtibia 13.2019
rfoot -19.5988 -14.4963
rtoes -11.3428
lfemur -42.2336 -3.70687 -11.3865
ltibia 33.1252
lfoot -13.717 6.28486
ltoes -55.3822
561
root -0.237356 18.7106 4.3275 21.9238 10.0397 -1.81324
lowerback 30.8292 1.30731 -1.26473
upperback 5.4763 1.21425 -0.664731
thorax -10.7673 0.603254 -0.49987
lowerneck -1.55743 -1.32281 -3.96375
upperneck -2.66805 -1.62716 5.76419
head -0.483331 -0.807989 2.50147
rclavicle 7.55382e-015 -1.59028e-015
rhumerus 7.35904 17.0255 -65.3329
rradius 146.889
rwrist -19.7487
rhand 9.88226 -54.0037
rfingers 7.12502
rthumb 35.0147 -80.5563
lclavicle 7.55382e-015 -1.59028e-015
lhumerus 6.54806 -31.6031 60.3648
lradius 142.473
lwrist 13.5097
lhand -11.1562 -29.389
lfingers 7.12502
lthumb 14.8701 0.0573583
rfemur -25.2393 -4.60532 15.2744
rtibia 13.2284
rfoot -19.7149 -14.6316
rtoes -11.1515
lfemur -42.2552 -3.676 -11.5392
ltibia 33.0812
lfoot -13.6533 6.19905
ltoes -55.3196
